<svg xmlns="http://www.w3.org/2000/svg"  viewBox="0 0 100 100" width="100px" height="100px"><path fill="#3070b7" stroke="#78a2d2" stroke-miterlimit="10" d="M69.986,82h-39c-6.6,0-12-5.4-12-12V31c0-6.6,5.4-12,12-12h39 c6.6,0,12,5.4,12,12v39C81.986,76.6,76.586,82,69.986,82z"/><path fill="#3a83c1" d="M69.986,19h-39c-6.6,0-12,5.4-12,12v12.501C23.127,47.521,28.773,50,35,50h31 c6.213,0,11.847-2.468,15.986-6.472V31C81.986,24.4,76.586,19,69.986,19z"/><path fill="#40a6dd" d="M69.986,19h-39c-6.6,0-12,5.4-12,12v4.501C23.127,39.521,28.773,42,35,42h31 c6.213,0,11.847-2.468,15.986-6.472V31C81.986,24.4,76.586,19,69.986,19z"/><path fill="#31c4f3" d="M69.986,19h-39c-5.528,0-10.201,3.794-11.578,8.903C23.507,31.686,28.982,34,35,34h31 c6.006,0,11.472-2.304,15.569-6.074C80.2,22.805,75.522,19,69.986,19z"/><path fill="#1f212b" d="M69.986,83h-39c-7.18,0-13-5.82-13-13V31c0-7.18,5.82-13,13-13h39c7.18,0,13,5.82,13,13v39 C82.986,77.18,77.165,83,69.986,83z M19.986,31v39c0,6.075,4.925,11,11,11h39c6.075,0,11-4.925,11-11V31c0-6.075-4.925-11-11-11 h-39C24.91,20,19.986,24.925,19.986,31z"/><path fill="#1f212b" d="M67.148,78H33.823c-5.985,0-10.837-4.852-10.837-10.837V33.837C22.986,27.852,27.838,23,33.823,23 h33.663c0.276,0,0.5,0.224,0.5,0.5s-0.224,0.5-0.5,0.5H33.823c-5.433,0-9.837,4.404-9.837,9.837v33.325 c0,5.433,4.405,9.838,9.838,9.838h33.325c5.433,0,9.837-4.404,9.837-9.837V48.5c0-0.276,0.224-0.5,0.5-0.5s0.5,0.224,0.5,0.5 v18.662C77.986,73.148,73.133,78,67.148,78z M77.486,45.579c-0.276,0-0.5-0.224-0.5-0.5v-4c0-0.276,0.224-0.5,0.5-0.5 s0.5,0.224,0.5,0.5v4C77.986,45.356,77.762,45.579,77.486,45.579z M77.486,39.579c-0.276,0-0.5-0.224-0.5-0.5v-2 c0-0.276,0.224-0.5,0.5-0.5s0.5,0.224,0.5,0.5v2C77.986,39.356,77.762,39.579,77.486,39.579z"/><path fill="#fff" d="M67.479,55.217c-0.143-1.016-1.112-1.713-2.138-1.713h-6.188l-5.627-9.882l-0.683,1.199 c-1.049,1.841-1.049,4.098,0,5.939l7.806,13.709c0.386,0.674,1.094,1.047,1.819,1.038c0.339-0.004,0.681-0.093,0.996-0.273 c0.989-0.566,1.331-1.827,0.765-2.816l-2.794-4.906h4.06C66.698,57.513,67.653,56.454,67.479,55.217z"/><path fill="#fff" d="M54.463,33.781c-0.989-0.566-2.249-0.224-2.815,0.765l-1.645,2.888l-1.646-2.89 c-0.567-0.989-1.827-1.332-2.816-0.765s-1.331,1.827-0.765,2.816l2.852,5.008l-6.783,11.907H34.5c-1.104,0-1.999,0.895-1.999,1.999 s0.895,1.999,1.999,1.999h17.484c0.488,0,0.926-0.353,0.99-0.837c0.249-1.862-1.01-2.758-1.544-3.05 c-0.14-0.077-0.299-0.111-0.459-0.111h-5.379l9.635-16.913C55.794,35.608,55.451,34.347,54.463,33.781z"/><path fill="#fff" d="M37.246,59.898l-1.475,2.516c-0.566,0.988-0.224,2.249,0.765,2.815 c0.315,0.18,0.657,0.268,0.996,0.273c0.725,0.009,1.433-0.364,1.819-1.038l2.172-3.787C39.293,58.634,37.246,59.898,37.246,59.898z"/><path fill="none" stroke="#1f212b" stroke-linecap="round" stroke-linejoin="round" stroke-miterlimit="10" d="M67.479,55.217 c-0.143-1.016-1.112-1.713-2.138-1.713h-6.188l-5.627-9.882l-0.683,1.199c-1.049,1.841-1.049,4.098,0,5.939l7.806,13.709 c0.386,0.674,1.094,1.047,1.819,1.038c0.339-0.004,0.681-0.093,0.996-0.273c0.989-0.566,1.331-1.827,0.765-2.816l-2.794-4.906h4.06 C66.698,57.513,67.653,56.454,67.479,55.217z"/><path fill="none" stroke="#1f212b" stroke-linecap="round" stroke-linejoin="round" stroke-miterlimit="10" d="M54.463,33.781 c-0.989-0.566-2.249-0.224-2.815,0.765l-1.645,2.888l-1.646-2.89c-0.567-0.989-1.827-1.332-2.816-0.765s-1.331,1.827-0.765,2.816 l2.852,5.008l-6.783,11.907H34.5c-1.104,0-1.999,0.895-1.999,1.999s0.895,1.999,1.999,1.999h17.484c0.488,0,0.926-0.353,0.99-0.837 c0.249-1.862-1.01-2.758-1.544-3.05c-0.14-0.077-0.299-0.111-0.459-0.111h-5.379l9.635-16.913 C55.794,35.608,55.451,34.347,54.463,33.781z"/><path fill="none" stroke="#1f212b" stroke-linecap="round" stroke-linejoin="round" stroke-miterlimit="10" d="M37.246,59.898 l-1.475,2.516c-0.566,0.988-0.224,2.249,0.765,2.815c0.315,0.18,0.657,0.268,0.996,0.273c0.725,0.009,1.433-0.364,1.819-1.038 l2.172-3.787C39.293,58.634,37.246,59.898,37.246,59.898z"/></svg>